<?xml version="1.0" standalone="no"?>
<!DOCTYPE svg PUBLIC "-//W3C//DTD SVG 20010904//EN"
 "http://www.w3.org/TR/2001/REC-SVG-20010904/DTD/svg10.dtd">
<svg version="1.0" xmlns="http://www.w3.org/2000/svg"
 width="512.000000pt" height="512.000000pt" viewBox="0 0 512.000000 512.000000"
 preserveAspectRatio="xMidYMid meet">
<metadata>
Created by potrace 1.14, written by Peter Selinger 2001-2017
</metadata>
<g transform="translate(0.000000,512.000000) scale(0.100000,-0.100000)"
fill="#000000" stroke="none">
<path d="M1195 2595 l0 -565 97 0 97 0 0 565 0 565 -97 0 -97 0 0 -565z"/>
<path d="M44 3081 c-2 -2 -4 -46 -4 -97 l0 -93 206 0 c113 0 208 -2 211 -5 3
-3 6 -197 6 -431 l-1 -425 94 0 94 0 1 48 c0 26 0 219 1 430 l0 382 62 1 c33
0 127 0 208 0 105 0 147 3 150 12 3 7 4 50 3 97 l0 85 -514 0 c-282 0 -514 -2
-517 -4z"/>
<path d="M1466 2820 c-1 -3 -2 -45 -1 -95 l0 -90 189 -2 c177 -1 190 -2 210
-22 20 -21 21 -30 21 -301 l0 -280 96 0 97 0 -2 298 c-2 280 -3 300 -23 342
-30 65 -62 96 -129 127 -57 26 -64 27 -257 28 -109 0 -199 -2 -201 -5z"/>
<path d="M2455 2815 c-63 -13 -129 -55 -162 -104 -45 -66 -47 -91 -44 -548 l1
-133 94 0 93 0 0 271 c0 286 4 314 47 325 12 2 120 6 241 7 l220 2 0 95 0 95
-218 0 c-120 0 -242 -4 -272 -10z"/>
<path d="M3275 2819 c-80 -12 -140 -51 -183 -121 -31 -50 -35 -85 -36 -288 0
-176 1 -188 25 -234 13 -27 42 -64 63 -83 63 -53 113 -63 328 -63 103 0 188 3
189 8 0 4 1 44 2 90 l2 82 -30 1 c-16 0 -88 1 -160 0 -242 -1 -239 -4 -240
204 -1 164 5 196 39 215 28 15 372 19 416 5 52 -16 67 -81 30 -128 l-20 -25
-187 -2 c-103 0 -189 -3 -192 -5 -2 -3 -4 -43 -5 -90 l-1 -85 35 -1 c19 -1
110 -1 201 -1 149 0 172 3 215 22 83 36 134 98 152 185 26 130 -28 238 -148
293 -52 24 -63 26 -255 26 -110 1 -218 -1 -240 -5z"/>
<path d="M4255 2819 c-86 -15 -151 -61 -185 -132 -29 -59 -33 -95 -33 -273 0
-190 13 -244 73 -303 72 -71 90 -76 325 -79 l210 -3 0 90 c1 84 -1 91 -20 92
-11 1 -87 1 -170 0 -167 0 -207 8 -224 45 -7 15 -11 85 -11 180 0 151 1 156
25 179 13 14 37 25 52 26 104 4 365 0 382 -6 32 -10 52 -56 41 -95 -16 -57
-26 -59 -232 -60 l-188 0 0 -90 c0 -86 1 -90 23 -91 12 -1 100 -1 195 -1 200
0 248 11 307 70 55 55 78 106 80 181 3 83 -17 142 -65 191 -42 43 -78 64 -130
76 -44 10 -401 12 -455 3z"/>
</g>
</svg>
